<?xml version="1.0" encoding="iso-8859-1"?>
<!-- Generator: Adobe Illustrator 19.1.0, SVG Export Plug-In . SVG Version: 6.00 Build 0)  -->
<svg xmlns="http://www.w3.org/2000/svg" xmlns:xlink="http://www.w3.org/1999/xlink" version="1.1" id="Capa_1" x="0px" y="0px" viewBox="0 0 64 64" style="enable-background:new 0 0 64 64;" xml:space="preserve" width="512px" height="512px">
<g>
	<g>
		<g>
			<path d="M5.383,32.022C5.14,32.971,5,33.967,5,35c0,5.794,4.206,10,10,10v-2c-4.71,0-8-3.29-8-8c0-4.962,3.589-9,8-9h2.829     l0.153-0.815C19.528,16.965,27.105,11,36,11c10.477,0,19,7.626,19,17v1h1c3.536,0,6,4.216,6,8c0,3.645-2.355,6-6,6v2     c4.71,0,8-3.29,8-8c0-4.493-2.783-9.282-7.024-9.927C56.439,17.025,47.236,9,36,9c-4.097,0-7.938,1.156-11.156,3.157     C22.197,8.906,18.254,7,14,7C6.28,7,0,13.28,0,21c0,2.682,0.761,5.288,2.201,7.538C3.051,29.865,4.14,31.047,5.383,32.022z M14,9     c3.591,0,6.929,1.581,9.197,4.291C19.74,15.944,17.208,19.666,16.189,24H15c-3.88,0-7.242,2.448-8.9,6.009     c-0.849-0.747-1.606-1.601-2.214-2.549C2.652,25.533,2,23.299,2,21C2,14.383,7.383,9,14,9z" fill="#FFFFFF"/>
			<rect x="17" y="43" width="37" height="2" fill="#FFFFFF"/>
			<rect x="17" y="49" width="37" height="2" fill="#FFFFFF"/>
			<rect x="17" y="55" width="37" height="2" fill="#FFFFFF"/>
		</g>
	</g>
	<g>
	</g>
	<g>
	</g>
	<g>
	</g>
	<g>
	</g>
	<g>
	</g>
	<g>
	</g>
	<g>
	</g>
	<g>
	</g>
	<g>
	</g>
	<g>
	</g>
	<g>
	</g>
	<g>
	</g>
	<g>
	</g>
	<g>
	</g>
	<g>
	</g>
</g>
<g>
</g>
<g>
</g>
<g>
</g>
<g>
</g>
<g>
</g>
<g>
</g>
<g>
</g>
<g>
</g>
<g>
</g>
<g>
</g>
<g>
</g>
<g>
</g>
<g>
</g>
<g>
</g>
<g>
</g>
</svg>
