<?xml version="1.0" encoding="iso-8859-1"?>
<!-- Generator: Adobe Illustrator 16.0.0, SVG Export Plug-In . SVG Version: 6.00 Build 0)  -->
<!DOCTYPE svg PUBLIC "-//W3C//DTD SVG 1.1//EN" "http://www.w3.org/Graphics/SVG/1.1/DTD/svg11.dtd">
<svg version="1.1" id="Capa_1" xmlns="http://www.w3.org/2000/svg" xmlns:xlink="http://www.w3.org/1999/xlink" x="0px" y="0px"
	 width="612px" height="612px" viewBox="0 0 612 612" style="enable-background:new 0 0 612 612;" xml:space="preserve">
<g>
	<g id="sunny">
		<g>
			<path d="M306,0l-31.652,63.304h63.304L306,0z M41.004,459l70.648-4.246L80,399.923L41.004,459z M212.077,80L153,41.004
				l4.246,70.648L212.077,80z M570.996,153l-70.647,4.246L532,212.077L570.996,153z M63.304,274.348L0,306l63.304,31.652V274.348z
				 M548.696,337.652L612,306l-63.304-31.652V337.652z M459,41.004L399.923,80l54.831,31.652L459,41.004z M80,212.077l31.652-54.832
				L41.004,153L80,212.077z M399.923,532L459,570.996l-4.246-70.647L399.923,532z M500.349,454.754L570.996,459L532,399.923
				L500.349,454.754z M306,126.856c-99.067,0-179.374,80.306-179.374,179.374S206.933,485.603,306,485.603
				s179.373-80.306,179.373-179.373S405.067,126.856,306,126.856z M306,439.665c-73.976,0-133.933-60.723-133.933-135.616
				c0-74.913,59.957-135.615,133.933-135.615s133.933,60.722,133.933,135.615C439.933,378.942,379.976,439.665,306,439.665z
				 M306,612l31.652-63.304h-63.304L306,612z M153,570.996L212.077,532l-54.832-31.651L153,570.996z"/>
		</g>
	</g>
</g>
<g>
</g>
<g>
</g>
<g>
</g>
<g>
</g>
<g>
</g>
<g>
</g>
<g>
</g>
<g>
</g>
<g>
</g>
<g>
</g>
<g>
</g>
<g>
</g>
<g>
</g>
<g>
</g>
<g>
</g>
</svg>
