<?xml version="1.0" encoding="iso-8859-1"?>
<!-- Generator: Adobe Illustrator 19.0.0, SVG Export Plug-In . SVG Version: 6.00 Build 0)  -->
<svg version="1.1" id="Capa_1" xmlns="http://www.w3.org/2000/svg" xmlns:xlink="http://www.w3.org/1999/xlink" x="0px" y="0px"
	 viewBox="0 0 512.001 512.001" style="enable-background:new 0 0 512.001 512.001;" xml:space="preserve">
<g>
	<g>
		<path d="M135.573,288.08h-18.735l13.249-13.249c2.943-2.943,2.943-7.716,0-10.658c-2.944-2.943-7.716-2.943-10.659,0
			l-13.249,13.249v-18.736c0-4.162-3.373-7.537-7.537-7.537c-4.163,0-7.537,3.374-7.537,7.537v18.736l-13.249-13.249
			c-2.944-2.943-7.716-2.943-10.659,0c-2.943,2.943-2.943,7.716,0,10.658l13.249,13.249H61.71c-4.163,0-7.537,3.374-7.537,7.537
			s3.373,7.537,7.537,7.537h18.736l-13.249,13.249c-2.943,2.943-2.943,7.716,0,10.658c1.472,1.471,3.402,2.208,5.33,2.208
			c1.928,0,3.858-0.736,5.33-2.208l13.249-13.249v18.736c0,4.162,3.373,7.537,7.537,7.537s7.537-3.374,7.537-7.537v-18.736
			l13.249,13.249c1.472,1.471,3.402,2.208,5.33,2.208s3.858-0.736,5.33-2.208c2.943-2.943,2.943-7.716,0-10.658l-13.249-13.249
			h18.735c4.163,0,7.537-3.374,7.537-7.537S139.735,288.08,135.573,288.08z"/>
	</g>
</g>
<g>
	<g>
		<path d="M239.699,459.771h-18.735l13.249-13.249c2.943-2.943,2.943-7.716,0-10.658c-2.944-2.943-7.716-2.943-10.659,0
			l-13.249,13.249v-18.736c0-4.162-3.373-7.537-7.537-7.537c-4.163,0-7.537,3.374-7.537,7.537v18.736l-13.249-13.249
			c-2.944-2.943-7.716-2.943-10.659,0c-2.943,2.943-2.943,7.716,0,10.658l13.249,13.249h-18.736c-4.163,0-7.537,3.374-7.537,7.537
			s3.373,7.537,7.537,7.537h18.736l-13.249,13.249c-2.943,2.943-2.943,7.716,0,10.658c1.472,1.471,3.402,2.208,5.33,2.208
			s3.858-0.736,5.33-2.208l13.249-13.249v18.736c0,4.162,3.373,7.537,7.537,7.537c4.163,0,7.537-3.374,7.537-7.537v-18.736
			l13.249,13.249c1.472,1.471,3.402,2.208,5.33,2.208s3.858-0.736,5.33-2.208c2.943-2.943,2.943-7.716,0-10.658l-13.249-13.249
			h18.735c4.163,0,7.537-3.374,7.537-7.537S243.862,459.771,239.699,459.771z"/>
	</g>
</g>
<g>
	<g>
		<path d="M483.267,294.109h-18.735l13.249-13.249c2.943-2.943,2.943-7.716,0-10.658c-2.944-2.943-7.716-2.943-10.659,0
			l-13.249,13.249v-18.736c0-4.162-3.373-7.537-7.537-7.537c-4.163,0-7.537,3.374-7.537,7.537v18.736l-13.249-13.249
			c-2.944-2.943-7.716-2.943-10.659,0c-2.943,2.943-2.943,7.716,0,10.658l13.249,13.249h-18.736c-4.163,0-7.537,3.374-7.537,7.537
			s3.373,7.537,7.537,7.537h18.736l-13.249,13.249c-2.943,2.943-2.943,7.716,0,10.658c1.472,1.471,3.402,2.208,5.33,2.208
			c1.928,0,3.858-0.736,5.33-2.208L438.8,319.84v18.736c0,4.162,3.373,7.537,7.537,7.537c4.163,0,7.537-3.374,7.537-7.537V319.84
			l13.249,13.249c1.472,1.471,3.402,2.208,5.33,2.208c1.928,0,3.858-0.736,5.33-2.208c2.943-2.943,2.943-7.716,0-10.658
			l-13.249-13.249h18.735c4.163,0,7.537-3.374,7.537-7.537S487.429,294.109,483.267,294.109z"/>
	</g>
</g>
<g>
	<g>
		<path d="M436.432,428.37h-18.735l13.249-13.249c2.943-2.943,2.943-7.716,0-10.658c-2.944-2.943-7.716-2.943-10.659,0
			l-13.249,13.249v-18.737c0-4.162-3.373-7.537-7.537-7.537c-4.163,0-7.537,3.374-7.537,7.537v18.736l-13.249-13.249
			c-2.944-2.943-7.716-2.943-10.659,0c-2.943,2.943-2.943,7.716,0,10.658l13.249,13.249h-18.736c-4.163,0-7.537,3.374-7.537,7.537
			s3.373,7.537,7.537,7.537h18.736l-13.249,13.249c-2.943,2.943-2.943,7.716,0,10.658c1.472,1.471,3.402,2.208,5.33,2.208
			c1.928,0,3.858-0.736,5.33-2.208l13.249-13.249v18.736c0,4.162,3.373,7.537,7.537,7.537c4.163,0,7.537-3.374,7.537-7.537v-18.736
			l13.249,13.249c1.472,1.471,3.402,2.208,5.33,2.208c1.928,0,3.858-0.736,5.33-2.208c2.943-2.943,2.943-7.716,0-10.658
			l-13.249-13.249h18.735c4.163,0,7.537-3.374,7.537-7.537S440.594,428.37,436.432,428.37z"/>
	</g>
</g>
<g>
	<g>
		<path d="M307.328,322.379h-14.925l10.554-10.554c2.344-2.344,2.344-6.146,0-8.49c-2.345-2.344-6.146-2.344-8.491,0l-10.553,10.553
			v-14.926c0-3.316-2.688-6.004-6.004-6.004s-6.004,2.688-6.004,6.004v14.926l-10.553-10.553c-2.345-2.344-6.146-2.344-8.491,0
			c-2.344,2.344-2.344,6.146,0,8.49l10.554,10.554h-14.926c-3.316,0-6.004,2.688-6.004,6.004c0,3.316,2.688,6.004,6.004,6.004
			h14.926l-10.554,10.554c-2.344,2.344-2.344,6.146,0,8.49c1.173,1.173,2.709,1.759,4.246,1.759s3.073-0.586,4.246-1.759
			l10.553-10.553v14.926c0,3.316,2.688,6.004,6.004,6.004s6.004-2.688,6.004-6.004v-14.926l10.553,10.553
			c1.173,1.173,2.709,1.759,4.246,1.759s3.073-0.586,4.246-1.759c2.344-2.344,2.344-6.146,0-8.49l-10.554-10.554h14.925
			c3.316,0,6.004-2.688,6.004-6.004C313.332,325.067,310.644,322.379,307.328,322.379z"/>
	</g>
</g>
<g>
	<g>
		<path d="M86.25,422.869H71.326l10.554-10.554c2.344-2.344,2.344-6.146,0-8.49c-2.345-2.344-6.146-2.344-8.491,0l-10.553,10.553
			v-14.926c0-3.316-2.688-6.004-6.004-6.004s-6.004,2.688-6.004,6.004v14.926l-10.553-10.553c-2.345-2.344-6.146-2.344-8.491,0
			c-2.344,2.344-2.344,6.146,0,8.49l10.554,10.554H27.41c-3.316,0-6.004,2.688-6.004,6.004c0,3.316,2.688,6.004,6.004,6.004h14.926
			l-10.554,10.554c-2.344,2.344-2.344,6.146,0,8.49c1.173,1.173,2.709,1.759,4.246,1.759s3.073-0.586,4.246-1.759l10.553-10.553
			v14.926c0,3.316,2.688,6.004,6.004,6.004c3.316,0,6.004-2.688,6.004-6.004v-14.926l10.553,10.553
			c1.173,1.173,2.709,1.759,4.246,1.759s3.073-0.586,4.246-1.759c2.344-2.344,2.344-6.146,0-8.49l-10.554-10.554H86.25
			c3.316,0,6.004-2.688,6.004-6.004C92.255,425.557,89.566,422.869,86.25,422.869z"/>
	</g>
</g>
<g>
	<g>
		<path d="M163.98,229.191c-23.72-1.714-45.663-11.017-63.455-26.903c-1.983-1.771-4.752-2.366-7.286-1.566
			c-38.307,12.084-77.033-16.331-78.14-55.551c-0.872-31.386,22.353-57.624,52.647-61.344c2.639-0.325,4.913-2.015,5.982-4.45
			c7.12-16.21,18.293-30.555,32.31-41.485c3.283-2.56,3.869-7.296,1.309-10.578c-2.558-3.282-7.295-3.868-10.578-1.309
			C81.893,37.603,69.826,52.579,61.678,69.507C26.229,75.917,0,106.97,0,143.427c0,48.211,45.754,84.988,93.654,72.841
			c19.71,16.455,43.561,26.102,69.239,27.957c4.179,0.299,7.762-2.847,8.06-6.974C171.254,233.1,168.131,229.49,163.98,229.191z"/>
	</g>
</g>
<g>
	<g>
		<path d="M490.24,204.24c-3.023-2.862-7.792-2.732-10.655,0.288c-21.717,22.92-55.767,25.727-80.611,9.435
			c-3.014-1.976-7.003-1.542-9.522,1.034c-35.453,36.259-97.08,17.02-105.249-33.108c-1.686-10.383-15.368-12.961-20.78-4.041
			c-15.735,25.934-41.758,44.056-71.394,49.718c-4.089,0.781-6.77,4.729-5.988,8.817c0.782,4.088,4.732,6.772,8.817,5.988
			c30.86-5.896,58.28-23.621,76.477-49.148c15.665,54.159,82.347,73.55,124.532,36.451c29.727,16.388,68.917,12.391,94.661-14.779
			C493.39,211.873,493.262,207.103,490.24,204.24z"/>
	</g>
</g>
<g>
	<g>
		<path d="M380.488,103.414c-12.592-6.489-26.615-9.285-40.414-8.343c-8.561-35.717-42.522-60.828-80.152-57.275
			C225.163,1.62,171.242-9.967,124.395,9.785c-3.836,1.617-5.633,6.037-4.017,9.873s6.037,5.636,9.872,4.017
			c41.774-17.612,90.568-6.882,121.164,27.106c1.69,1.877,4.208,2.786,6.707,2.413c33.634-4.984,63.955,18.842,68.381,51.186
			c0.575,4.197,4.497,7.098,8.684,6.416c15.04-2.461,30.041,0.622,42.598,8.395c3.061,1.894,7.034,1.361,9.486-1.276
			c38.963-41.899,109.656-14.366,109.656,43.085c0,7.093-1.163,14.053-3.456,20.688c-1.696,4.909,1.972,10.001,7.124,10.001
			c3.124,0,6.045-1.959,7.123-5.077c2.842-8.222,4.283-16.84,4.283-25.612C512,92.455,430.306,57.509,380.488,103.414z"/>
	</g>
</g>
<g>
</g>
<g>
</g>
<g>
</g>
<g>
</g>
<g>
</g>
<g>
</g>
<g>
</g>
<g>
</g>
<g>
</g>
<g>
</g>
<g>
</g>
<g>
</g>
<g>
</g>
<g>
</g>
<g>
</g>
</svg>
